<svg width="75" height="75" viewBox="0 0 75 75" fill="none" xmlns="http://www.w3.org/2000/svg">
<path fill-rule="evenodd" clip-rule="evenodd" d="M36.7532 65.168C29.97 60.9934 23.6597 56.0801 17.9353 50.5162C13.9107 46.5092 10.8469 41.6243 8.97843 36.2356C5.61607 25.7822 9.54353 13.8151 20.5347 10.2735C26.3113 8.41386 32.6202 9.47673 37.4878 13.1296C42.3573 9.48118 48.6639 8.41868 54.4408 10.2735C65.432 13.8151 69.3878 25.7822 66.0254 36.2356C64.1569 41.6243 61.0931 46.5092 57.0685 50.5162C51.3441 56.0801 45.0338 60.9934 38.2507 65.168L37.516 65.625L36.7532 65.168Z" stroke="#C2C2C2" stroke-width="4" stroke-linecap="round" stroke-linejoin="round"/>
<path d="M49.1851 22.041C52.5141 23.1045 54.8795 26.0932 55.1751 29.6097" stroke="#C2C2C2" stroke-width="4" stroke-linecap="round" stroke-linejoin="round"/>
</svg>
