<svg width="75" height="75" viewBox="0 0 75 75" fill="none" xmlns="http://www.w3.org/2000/svg">
<path fill-rule="evenodd" clip-rule="evenodd" d="M66.2813 24.6873V50.1561C66.2813 59.5936 60.375 66.2498 50.9375 66.2498H23.9063C14.4688 66.2498 8.59375 59.5936 8.59375 50.1561V24.6873C8.59375 15.2498 14.5 8.59668 23.9063 8.59668H50.9375C60.375 8.59668 66.2813 15.2498 66.2813 24.6873Z" stroke="#C2C2C2" stroke-width="4" stroke-linecap="round" stroke-linejoin="round"/>
<path d="M16.5039 51.3506L21.282 46.31C23.0039 44.4912 25.8945 44.4818 27.632 46.285L30.3977 49.1069C32.2633 51.01 35.3664 50.8725 37.057 48.8131L44.0227 40.3412C46.0227 37.9068 49.6914 37.7568 51.882 40.0162L58.3695 46.71" stroke="#C2C2C2" stroke-width="4" stroke-linecap="round" stroke-linejoin="round"/>
<path fill-rule="evenodd" clip-rule="evenodd" d="M32.2299 28.5447C32.2299 31.5697 29.7736 34.026 26.7486 34.026C23.7236 34.026 21.2705 31.5697 21.2705 28.5447C21.2705 25.5197 23.7236 23.0635 26.7486 23.0635C29.7736 23.0635 32.2299 25.5197 32.2299 28.5447Z" stroke="#C2C2C2" stroke-width="4" stroke-linecap="round" stroke-linejoin="round"/>
</svg>
