<svg width="75" height="75" viewBox="0 0 75 75" fill="none" xmlns="http://www.w3.org/2000/svg">
<path fill-rule="evenodd" clip-rule="evenodd" d="M65.0204 23.8235L63.0753 20.4482C61.4298 17.5922 57.7831 16.6069 54.9232 18.2457V18.2457C53.5618 19.0476 51.9374 19.2751 50.4081 18.8781C48.8788 18.481 47.5702 17.4919 46.771 16.129C46.2568 15.2626 45.9805 14.2759 45.9701 13.2685V13.2685C46.0164 11.6535 45.4071 10.0884 44.2809 8.92988C43.1547 7.77134 41.6075 7.11799 39.9918 7.11865H36.073C34.4901 7.11863 32.9725 7.7494 31.8559 8.87137C30.7392 9.99334 30.1158 11.514 30.1234 13.0969V13.0969C30.0765 16.3651 27.4136 18.9897 24.1451 18.9894C23.1378 18.9789 22.151 18.7026 21.2847 18.1884V18.1884C18.4248 16.5497 14.7781 17.535 13.1325 20.391L11.0444 23.8235C9.40088 26.6759 10.3727 30.3203 13.2183 31.9756V31.9756C15.068 33.0435 16.2075 35.0171 16.2075 37.153C16.2075 39.2888 15.068 41.2624 13.2183 42.3303V42.3303C10.3763 43.9745 9.40344 47.6101 11.0444 50.4539V50.4539L13.0181 53.8578C13.7891 55.249 15.0827 56.2756 16.6127 56.7104C18.1427 57.1453 19.7829 56.9525 21.1703 56.1747V56.1747C22.5342 55.3789 24.1596 55.1608 25.685 55.569C27.2105 55.9773 28.5097 56.9779 29.2939 58.3486C29.808 59.215 30.0843 60.2017 30.0948 61.209V61.209C30.0948 64.5107 32.7713 67.1873 36.073 67.1873H39.9918C43.2824 67.1873 45.9543 64.5282 45.9701 61.2376V61.2376C45.9624 59.6498 46.5898 58.1247 47.7126 57.0019C48.8354 55.8791 50.3605 55.2517 51.9483 55.2594C52.9533 55.2863 53.9359 55.5614 54.8087 56.0603V56.0603C57.6612 57.7039 61.3056 56.732 62.9609 53.8864V53.8864L65.0204 50.4539C65.8176 49.0856 66.0364 47.4559 65.6284 45.9258C65.2203 44.3957 64.2191 43.0914 62.8465 42.3017V42.3017C61.4739 41.512 60.4727 40.2077 60.0646 38.6776C59.6566 37.1475 59.8754 35.5178 60.6726 34.1495C61.191 33.2445 61.9414 32.494 62.8465 31.9756V31.9756C65.6751 30.3212 66.6446 26.6981 65.0204 23.8521V23.8521V23.8235Z" stroke="#C2C2C2" stroke-width="4" stroke-linecap="round" stroke-linejoin="round"/>
<ellipse cx="38.0476" cy="37.1525" rx="8.23799" ry="8.23799" stroke="#C2C2C2" stroke-width="4" stroke-linecap="round" stroke-linejoin="round"/>
</svg>
